<svg width="63" height="24" viewBox="0 0 63 24" fill="none" xmlns="http://www.w3.org/2000/svg">
<path d="M4.494 17.18C3.63 17.18 2.89 16.992 2.274 16.616C1.658 16.236 1.184 15.708 0.852 15.032C0.524 14.356 0.36 13.572 0.36 12.68C0.36 11.788 0.524 11.004 0.852 10.328C1.184 9.652 1.658 9.126 2.274 8.75C2.89 8.37 3.63 8.18 4.494 8.18C5.49 8.18 6.32 8.43 6.984 8.93C7.648 9.426 8.114 10.096 8.382 10.94L6.924 11.342C6.756 10.778 6.47 10.338 6.066 10.022C5.662 9.702 5.138 9.542 4.494 9.542C3.914 9.542 3.43 9.672 3.042 9.932C2.658 10.192 2.368 10.558 2.172 11.03C1.98 11.498 1.882 12.048 1.878 12.68C1.878 13.312 1.974 13.864 2.166 14.336C2.362 14.804 2.654 15.168 3.042 15.428C3.43 15.688 3.914 15.818 4.494 15.818C5.138 15.818 5.662 15.658 6.066 15.338C6.47 15.018 6.756 14.578 6.924 14.018L8.382 14.42C8.114 15.264 7.648 15.936 6.984 16.436C6.32 16.932 5.49 17.18 4.494 17.18ZM13.9314 17V13.88C13.9314 13.676 13.9174 13.45 13.8894 13.202C13.8614 12.954 13.7954 12.716 13.6914 12.488C13.5914 12.256 13.4394 12.066 13.2354 11.918C13.0354 11.77 12.7634 11.696 12.4194 11.696C12.2354 11.696 12.0534 11.726 11.8734 11.786C11.6934 11.846 11.5294 11.95 11.3814 12.098C11.2374 12.242 11.1214 12.442 11.0334 12.698C10.9454 12.95 10.9014 13.274 10.9014 13.67L10.0434 13.304C10.0434 12.752 10.1494 12.252 10.3614 11.804C10.5774 11.356 10.8934 11 11.3094 10.736C11.7254 10.468 12.2374 10.334 12.8454 10.334C13.3254 10.334 13.7214 10.414 14.0334 10.574C14.3454 10.734 14.5934 10.938 14.7774 11.186C14.9614 11.434 15.0974 11.698 15.1854 11.978C15.2734 12.258 15.3294 12.524 15.3534 12.776C15.3814 13.024 15.3954 13.226 15.3954 13.382V17H13.9314ZM9.43738 17V8.36H10.7274V12.908H10.9014V17H9.43738ZM18.5231 17.18C18.0551 17.18 17.6591 17.092 17.3351 16.916C17.0111 16.736 16.7651 16.498 16.5971 16.202C16.4331 15.906 16.3511 15.58 16.3511 15.224C16.3511 14.912 16.4031 14.632 16.5071 14.384C16.6111 14.132 16.7711 13.916 16.9871 13.736C17.2031 13.552 17.4831 13.402 17.8271 13.286C18.0871 13.202 18.3911 13.126 18.7391 13.058C19.0911 12.99 19.4711 12.928 19.8791 12.872C20.2911 12.812 20.7211 12.748 21.1691 12.68L20.6531 12.974C20.6571 12.526 20.5571 12.196 20.3531 11.984C20.1491 11.772 19.8051 11.666 19.3211 11.666C19.0291 11.666 18.7471 11.734 18.4751 11.87C18.2031 12.006 18.0131 12.24 17.9051 12.572L16.5851 12.158C16.7451 11.61 17.0491 11.17 17.4971 10.838C17.9491 10.506 18.5571 10.34 19.3211 10.34C19.8971 10.34 20.4031 10.434 20.8391 10.622C21.2791 10.81 21.6051 11.118 21.8171 11.546C21.9331 11.774 22.0031 12.008 22.0271 12.248C22.0511 12.484 22.0631 12.742 22.0631 13.022V17H20.7971V15.596L21.0071 15.824C20.7151 16.292 20.3731 16.636 19.9811 16.856C19.5931 17.072 19.1071 17.18 18.5231 17.18ZM18.8111 16.028C19.1391 16.028 19.4191 15.97 19.6511 15.854C19.8831 15.738 20.0671 15.596 20.2031 15.428C20.3431 15.26 20.4371 15.102 20.4851 14.954C20.5611 14.77 20.6031 14.56 20.6111 14.324C20.6231 14.084 20.6291 13.89 20.6291 13.742L21.0731 13.874C20.6371 13.942 20.2631 14.002 19.9511 14.054C19.6391 14.106 19.3711 14.156 19.1471 14.204C18.9231 14.248 18.7251 14.298 18.5531 14.354C18.3851 14.414 18.2431 14.484 18.1271 14.564C18.0111 14.644 17.9211 14.736 17.8571 14.84C17.7971 14.944 17.7671 15.066 17.7671 15.206C17.7671 15.366 17.8071 15.508 17.8871 15.632C17.9671 15.752 18.0831 15.848 18.2351 15.92C18.3911 15.992 18.5831 16.028 18.8111 16.028ZM27.8572 17V13.88C27.8572 13.676 27.8432 13.45 27.8152 13.202C27.7872 12.954 27.7212 12.716 27.6172 12.488C27.5172 12.256 27.3652 12.066 27.1612 11.918C26.9612 11.77 26.6892 11.696 26.3452 11.696C26.1612 11.696 25.9792 11.726 25.7992 11.786C25.6192 11.846 25.4552 11.95 25.3072 12.098C25.1632 12.242 25.0472 12.442 24.9592 12.698C24.8712 12.95 24.8272 13.274 24.8272 13.67L23.9692 13.304C23.9692 12.752 24.0752 12.252 24.2872 11.804C24.5032 11.356 24.8192 11 25.2352 10.736C25.6512 10.468 26.1632 10.334 26.7712 10.334C27.2512 10.334 27.6472 10.414 27.9592 10.574C28.2712 10.734 28.5192 10.938 28.7032 11.186C28.8872 11.434 29.0232 11.698 29.1112 11.978C29.1992 12.258 29.2552 12.524 29.2792 12.776C29.3072 13.024 29.3212 13.226 29.3212 13.382V17H27.8572ZM23.3632 17V10.52H24.6532V12.53H24.8272V17H23.3632ZM33.3609 20.06C33.0009 20.06 32.6549 20.004 32.3229 19.892C31.9949 19.78 31.6989 19.618 31.4349 19.406C31.1709 19.198 30.9549 18.946 30.7869 18.65L32.1189 17.99C32.2429 18.226 32.4169 18.4 32.6409 18.512C32.8689 18.628 33.1109 18.686 33.3669 18.686C33.6669 18.686 33.9349 18.632 34.1709 18.524C34.4069 18.42 34.5889 18.264 34.7169 18.056C34.8489 17.852 34.9109 17.596 34.9029 17.288V15.446H35.0829V10.52H36.3489V17.312C36.3489 17.476 36.3409 17.632 36.3249 17.78C36.3129 17.932 36.2909 18.08 36.2589 18.224C36.1629 18.644 35.9789 18.988 35.7069 19.256C35.4349 19.528 35.0969 19.73 34.6929 19.862C34.2929 19.994 33.8489 20.06 33.3609 20.06ZM33.2349 17.18C32.6389 17.18 32.1189 17.03 31.6749 16.73C31.2309 16.43 30.8869 16.022 30.6429 15.506C30.3989 14.99 30.2769 14.408 30.2769 13.76C30.2769 13.104 30.3989 12.52 30.6429 12.008C30.8909 11.492 31.2409 11.086 31.6929 10.79C32.1449 10.49 32.6769 10.34 33.2889 10.34C33.9049 10.34 34.4209 10.49 34.8369 10.79C35.2569 11.086 35.5749 11.492 35.7909 12.008C36.0069 12.524 36.1149 13.108 36.1149 13.76C36.1149 14.404 36.0069 14.986 35.7909 15.506C35.5749 16.022 35.2529 16.43 34.8249 16.73C34.3969 17.03 33.8669 17.18 33.2349 17.18ZM33.4569 15.884C33.8449 15.884 34.1569 15.796 34.3929 15.62C34.6329 15.44 34.8069 15.19 34.9149 14.87C35.0269 14.55 35.0829 14.18 35.0829 13.76C35.0829 13.336 35.0269 12.966 34.9149 12.65C34.8069 12.33 34.6369 12.082 34.4049 11.906C34.1729 11.726 33.8729 11.636 33.5049 11.636C33.1169 11.636 32.7969 11.732 32.5449 11.924C32.2929 12.112 32.1069 12.368 31.9869 12.692C31.8669 13.012 31.8069 13.368 31.8069 13.76C31.8069 14.156 31.8649 14.516 31.9809 14.84C32.1009 15.16 32.2829 15.414 32.5269 15.602C32.7709 15.79 33.0809 15.884 33.4569 15.884ZM40.7274 17.18C40.0714 17.18 39.4954 17.038 38.9994 16.754C38.5034 16.47 38.1154 16.076 37.8354 15.572C37.5594 15.068 37.4214 14.488 37.4214 13.832C37.4214 13.124 37.5574 12.51 37.8294 11.99C38.1014 11.466 38.4794 11.06 38.9634 10.772C39.4474 10.484 40.0074 10.34 40.6434 10.34C41.3154 10.34 41.8854 10.498 42.3534 10.814C42.8254 11.126 43.1754 11.568 43.4034 12.14C43.6314 12.712 43.7174 13.386 43.6614 14.162H42.2274V13.634C42.2234 12.93 42.0994 12.416 41.8554 12.092C41.6114 11.768 41.2274 11.606 40.7034 11.606C40.1114 11.606 39.6714 11.79 39.3834 12.158C39.0954 12.522 38.9514 13.056 38.9514 13.76C38.9514 14.416 39.0954 14.924 39.3834 15.284C39.6714 15.644 40.0914 15.824 40.6434 15.824C40.9994 15.824 41.3054 15.746 41.5614 15.59C41.8214 15.43 42.0214 15.2 42.1614 14.9L43.5894 15.332C43.3414 15.916 42.9574 16.37 42.4374 16.694C41.9214 17.018 41.3514 17.18 40.7274 17.18ZM38.4954 14.162V13.07H42.9534V14.162H38.4954Z" fill="#0D63E8"/>
<g clip-path="url(#clip0_771_12777)">
<path d="M54.3116 17.7314H52.3078C51.3186 17.7314 50.5141 16.9269 50.5141 15.9377V8.0627C50.5141 7.07351 51.3186 6.26895 52.3078 6.26895H57.9166C58.9057 6.26895 59.7103 7.07351 59.7103 8.0627V10.3158C59.7103 10.5333 59.8866 10.7096 60.1041 10.7096C60.3215 10.7096 60.4978 10.5333 60.4978 10.3158V8.0627C60.4978 6.63951 59.3397 5.48145 57.9166 5.48145H52.3078C50.8846 5.48145 49.7266 6.63907 49.7266 8.0627V15.9377C49.7266 17.3609 50.8846 18.5189 52.3078 18.5189H54.3116C54.529 18.5189 54.7053 18.3426 54.7053 18.1252C54.7053 17.9078 54.529 17.7314 54.3116 17.7314Z" fill="#0D63E8"/>
<path d="M58.403 8.9377C58.403 8.72026 58.2267 8.54395 58.0093 8.54395H52.215C51.9976 8.54395 51.8213 8.72026 51.8213 8.9377C51.8213 9.15513 51.9976 9.33144 52.215 9.33144H58.0093C58.2267 9.33144 58.403 9.15513 58.403 8.9377Z" fill="#0D63E8"/>
<path d="M52.215 11.6064C51.9976 11.6064 51.8213 11.7828 51.8213 12.0002C51.8213 12.2176 51.9976 12.3939 52.215 12.3939H56.6968C56.9142 12.3939 57.0905 12.2176 57.0905 12.0002C57.0905 11.7828 56.9142 11.6064 56.6968 11.6064H52.215Z" fill="#0D63E8"/>
<path d="M54.3379 14.6689H52.216C51.9986 14.6689 51.8223 14.8453 51.8223 15.0627C51.8223 15.2801 51.9986 15.4564 52.216 15.4564H54.3379C54.5553 15.4564 54.7316 15.2801 54.7316 15.0627C54.7316 14.8453 54.5553 14.6689 54.3379 14.6689Z" fill="#0D63E8"/>
<path d="M62.3453 12.2638L61.381 11.3004C61.0853 11.0038 60.5686 11.0042 60.2728 11.3004L55.4135 16.1589C55.2683 16.3041 55.1865 16.4975 55.1838 16.7044L55.1729 17.6792C55.1707 17.8918 55.2521 18.0917 55.4026 18.2427C55.5509 18.391 55.7469 18.4719 55.956 18.4719H55.9652L56.9404 18.461C57.146 18.4588 57.3394 18.3774 57.486 18.2317L62.3453 13.3724C62.6502 13.0666 62.6502 12.5696 62.3453 12.2638ZM56.9299 17.6735L55.9604 17.6884L55.97 16.7158L60.8236 11.8569L61.7879 12.8155L56.9299 17.6735Z" fill="#0D63E8"/>
</g>
<defs>
<clipPath id="clip0_771_12777">
<rect width="14" height="14" fill="white" transform="translate(49 5)"/>
</clipPath>
</defs>
</svg>
