<svg width="20" height="20" viewBox="0 0 20 20" fill="none" xmlns="http://www.w3.org/2000/svg">
<path d="M13.6203 12.0252L12.3653 12.9652C11.9233 13.2945 11.3778 13.4542 10.828 13.4152C10.2781 13.3762 9.7606 13.1411 9.36949 12.7527L6.57032 9.95275C6.37454 9.75815 6.1097 9.64893 5.83366 9.64893C5.55761 9.64893 5.29278 9.75815 5.09699 9.95275L1.04199 14.0094V15.0002C1.04332 16.0497 1.46078 17.0557 2.20282 17.7977C2.94487 18.5398 3.95092 18.9573 5.00032 18.9586H15.0003C16.0497 18.9573 17.0558 18.5398 17.7978 17.7977C18.5399 17.0557 18.9573 16.0497 18.9587 15.0002V14.6236L14.8045 11.9802C14.6257 11.8672 14.4168 11.811 14.2054 11.819C13.994 11.8271 13.79 11.899 13.6203 12.0252Z" fill="#0D63E8"/>
<path d="M13.3337 6.87484C13.909 6.87484 14.3753 6.40847 14.3753 5.83317C14.3753 5.25787 13.909 4.7915 13.3337 4.7915C12.7584 4.7915 12.292 5.25787 12.292 5.83317C12.292 6.40847 12.7584 6.87484 13.3337 6.87484Z" fill="#0D63E8"/>
<path d="M4.21366 9.06984C4.64997 8.65295 5.2302 8.42031 5.83366 8.42031C6.43712 8.42031 7.01735 8.65295 7.45366 9.06984L10.2537 11.869C10.4316 12.0452 10.6668 12.1519 10.9166 12.1696C11.1664 12.1873 11.4143 12.115 11.6153 11.9657L12.8653 11.0248C13.2388 10.747 13.6877 10.5889 14.1529 10.5712C14.618 10.5535 15.0776 10.677 15.4712 10.9257L18.9545 13.1423V4.99984C18.9532 3.95115 18.5363 2.94573 17.7951 2.2038C17.054 1.46188 16.049 1.04393 15.0003 1.0415H5.00033C3.95092 1.04283 2.94487 1.46029 2.20282 2.20233C1.46078 2.94438 1.04332 3.95043 1.04199 4.99984V12.2407L4.21366 9.06984ZM13.3337 3.5415C13.7869 3.5415 14.23 3.67591 14.6068 3.92772C14.9837 4.17953 15.2774 4.53744 15.4509 4.95619C15.6243 5.37494 15.6697 5.83571 15.5813 6.28025C15.4929 6.72479 15.2746 7.13313 14.9541 7.45362C14.6336 7.77412 14.2253 7.99238 13.7807 8.0808C13.3362 8.16923 12.8754 8.12385 12.4567 7.95039C12.0379 7.77694 11.68 7.48321 11.4282 7.10635C11.1764 6.72949 11.042 6.28642 11.042 5.83317C11.0424 5.22552 11.284 4.64288 11.7137 4.21321C12.1434 3.78353 12.726 3.54195 13.3337 3.5415Z" fill="#0D63E8"/>
</svg>
