<svg width="25" height="24" viewBox="0 0 25 24" fill="none" xmlns="http://www.w3.org/2000/svg">
<path d="M19.0996 8.5C19.3829 8.5 19.6204 8.40417 19.8121 8.2125C20.0038 8.02083 20.0996 7.78333 20.0996 7.5C20.0996 7.21667 20.0038 6.97917 19.8121 6.7875C19.6204 6.59583 19.3829 6.5 19.0996 6.5C18.8163 6.5 18.5788 6.59583 18.3871 6.7875C18.1954 6.97917 18.0996 7.21667 18.0996 7.5C18.0996 7.78333 18.1954 8.02083 18.3871 8.2125C18.5788 8.40417 18.8163 8.5 19.0996 8.5ZM19.0989 10C18.3904 10 17.7967 9.76067 17.3179 9.282C16.839 8.80317 16.5996 8.20992 16.5996 7.50225C16.5996 6.80842 16.839 6.21792 17.3179 5.73075C17.7965 5.24358 18.3897 5 19.0974 5C19.7912 5 20.3817 5.24317 20.8689 5.7295C21.356 6.21567 21.5996 6.80608 21.5996 7.50075C21.5996 8.20925 21.3564 8.80292 20.8701 9.28175C20.3839 9.76058 19.7935 10 19.0989 10ZM12.0996 7.5C12.5163 7.5 12.8704 7.35833 13.1621 7.075C13.4538 6.79167 13.5996 6.43333 13.5996 6C13.5996 5.58333 13.4538 5.22917 13.1621 4.9375C12.8704 4.64583 12.5163 4.5 12.0996 4.5C11.6663 4.5 11.3079 4.64583 11.0246 4.9375C10.7413 5.22917 10.5996 5.58333 10.5996 6C10.5996 6.43333 10.7413 6.79167 11.0246 7.075C11.3079 7.35833 11.6663 7.5 12.0996 7.5ZM12.1001 9C11.2574 9 10.5467 8.711 9.96786 8.133C9.38903 7.555 9.09961 6.84508 9.09961 6.00325C9.09961 5.17542 9.38861 4.46792 9.96661 3.88075C10.5446 3.29358 11.2546 3 12.0966 3C12.9243 3 13.6317 3.29283 14.2189 3.8785C14.806 4.464 15.0996 5.171 15.0996 5.9995C15.0996 6.84217 14.8068 7.55292 14.2211 8.13175C13.6356 8.71058 12.9286 9 12.1001 9ZM7.83036 13.375C7.83036 13.9263 8.10344 14.5482 8.64961 15.2405C9.19578 15.9327 10.2849 17.0198 11.9169 18.502L12.0996 18.6655L12.3016 18.473C13.8683 17.0563 14.9378 15.9941 15.5101 15.2863C16.0826 14.5784 16.3689 13.9413 16.3689 13.375C16.3689 12.9167 16.2179 12.528 15.9161 12.209C15.6144 11.8902 15.2423 11.7308 14.7996 11.7308C14.5271 11.7308 14.2693 11.7903 14.0261 11.9095C13.7828 12.0288 13.5784 12.193 13.4131 12.402L12.2996 13.7308H11.8844L10.7611 12.402C10.5958 12.193 10.3929 12.0288 10.1526 11.9095C9.91211 11.7903 9.66111 11.7308 9.39961 11.7308C8.93694 11.7308 8.55969 11.8902 8.26786 12.209C7.97619 12.528 7.83036 12.9167 7.83036 13.375ZM6.33036 13.375C6.33036 12.5558 6.61919 11.827 7.19686 11.1885C7.77436 10.55 8.50861 10.2307 9.39961 10.2307C9.90344 10.2307 10.38 10.3474 10.8294 10.5807C11.2787 10.8141 11.6604 11.1243 11.9746 11.5115L12.0996 11.6558L12.2246 11.502C12.5451 11.1212 12.9259 10.8141 13.3669 10.5807C13.8079 10.3474 14.2854 10.2307 14.7996 10.2307C15.6843 10.2307 16.4169 10.5529 16.9976 11.1973C17.5784 11.8418 17.8689 12.5677 17.8689 13.375C17.8689 14.207 17.556 15.041 16.9304 15.877C16.3047 16.7128 15.0547 17.9878 13.1804 19.702L12.0996 20.6923L11.0381 19.7307C9.11761 17.9744 7.85286 16.6857 7.24386 15.8645C6.63486 15.0433 6.33036 14.2135 6.33036 13.375ZM5.09961 8.5C5.38294 8.5 5.62044 8.40417 5.81211 8.2125C6.00378 8.02083 6.09961 7.78333 6.09961 7.5C6.09961 7.21667 6.00378 6.97917 5.81211 6.7875C5.62044 6.59583 5.38294 6.5 5.09961 6.5C4.81628 6.5 4.57878 6.59583 4.38711 6.7875C4.19544 6.97917 4.09961 7.21667 4.09961 7.5C4.09961 7.78333 4.19544 8.02083 4.38711 8.2125C4.57878 8.40417 4.81628 8.5 5.09961 8.5ZM12.1746 21.5V20H20.0996V13.3077C20.0996 13.2244 20.0692 13.1523 20.0084 13.0913C19.9474 13.0304 19.8752 13 19.7919 13H17.1881V11.5H19.7919C20.289 11.5 20.7146 11.677 21.0686 12.031C21.4226 12.385 21.5996 12.8106 21.5996 13.3077V20.5955C21.5996 20.8537 21.5129 21.0689 21.3396 21.2413C21.1664 21.4138 20.9518 21.5 20.6956 21.5H12.1746ZM4.09961 20H12.1746V21.5H3.50361C3.24744 21.5 3.03278 21.4133 2.85961 21.24C2.68628 21.0668 2.59961 20.8522 2.59961 20.596V13.311C2.59961 12.8102 2.77286 12.3831 3.11936 12.0297C3.46586 11.6766 3.89519 11.5 4.40736 11.5H7.01111V13H4.40736C4.31753 13 4.24378 13.0304 4.18611 13.0913C4.12844 13.1523 4.09961 13.2244 4.09961 13.3077V20ZM5.09886 10C4.39036 10 3.79669 9.76067 3.31786 9.282C2.83903 8.80317 2.59961 8.20992 2.59961 7.50225C2.59961 6.80842 2.83903 6.21792 3.31786 5.73075C3.79653 5.24358 4.38969 5 5.09736 5C5.79119 5 6.38169 5.24317 6.86886 5.7295C7.35603 6.21567 7.59961 6.80608 7.59961 7.50075C7.59961 8.20925 7.35644 8.80292 6.87011 9.28175C6.38394 9.76058 5.79353 10 5.09886 10Z" fill="#258085"/>
</svg>
