<svg width="32" height="32" viewBox="0 0 32 32" fill="none" xmlns="http://www.w3.org/2000/svg">
<path d="M16 32C24.8366 32 32 24.8366 32 16C32 7.16344 24.8366 0 16 0C7.16344 0 0 7.16344 0 16C0 24.8366 7.16344 32 16 32Z" fill="url(#paint0_linear_771_13288)"/>
<path d="M31.9999 15.9998C31.9999 22.7385 27.833 28.5048 21.9374 30.8623L5.34863 14.2754V12.8216L6.53613 11.7941L22.613 7.43164L24.0386 7.95914L31.9999 15.9173V15.9998Z" fill="url(#paint1_linear_771_13288)"/>
<path d="M24.5086 9.72361L20.2054 25.4617C20.1091 25.8251 19.9013 26.1491 19.6113 26.3882C19.3213 26.6273 18.9636 26.7695 18.5886 26.7949C18.5411 26.7949 18.4936 26.7999 18.4467 26.7999C18.0952 26.8015 17.7509 26.7 17.4566 26.5078C17.1622 26.3156 16.9308 26.0412 16.7911 25.7186L13.6998 18.7417C13.6125 18.5447 13.455 18.3872 13.2579 18.2999L6.28106 15.2086C5.9379 15.0568 5.65017 14.8025 5.45737 14.4806C5.26458 14.1586 5.17619 13.7849 5.20434 13.4108C5.23249 13.0366 5.3758 12.6803 5.61459 12.3909C5.85338 12.1014 6.17593 11.893 6.53793 11.7942L22.2761 7.49111C22.5853 7.40655 22.9114 7.4053 23.2213 7.48749C23.5312 7.56968 23.8139 7.73239 24.0406 7.95909C24.2673 8.1858 24.43 8.46844 24.5122 8.77833C24.5944 9.08823 24.5931 9.41435 24.5086 9.72361Z" fill="white"/>
<defs>
<linearGradient id="paint0_linear_771_13288" x1="4.68625" y1="4.68625" x2="27.3137" y2="27.3137" gradientUnits="userSpaceOnUse">
<stop stop-color="#2F999D"/>
<stop offset="1" stop-color="#206065"/>
</linearGradient>
<linearGradient id="paint1_linear_771_13288" x1="10.8736" y1="7.29602" x2="29.1024" y2="25.5248" gradientUnits="userSpaceOnUse">
<stop stop-color="#1E4D51"/>
<stop offset="1" stop-color="#1E4D51" stop-opacity="0"/>
</linearGradient>
</defs>
</svg>
