<svg width="23" height="24" viewBox="0 0 23 24" fill="none" xmlns="http://www.w3.org/2000/svg">
<path d="M20.3045 10.0451C19.9932 9.86419 19.7136 9.63372 19.4765 9.3628C19.5005 8.98561 19.5903 8.61553 19.7419 8.26934C20.0208 7.48255 20.3361 6.5913 19.8301 5.89842C19.3241 5.20555 18.3687 5.22759 17.5301 5.24675C17.1596 5.28488 16.7853 5.2596 16.4232 5.172C16.2303 4.85816 16.0926 4.51361 16.0159 4.1533C15.7783 3.3435 15.5071 2.4283 14.6743 2.15421C13.8712 1.89546 13.1275 2.46471 12.4701 2.96496C12.1864 3.22402 11.8577 3.42896 11.5003 3.56967C11.1391 3.43011 10.8067 3.22511 10.5199 2.96496C9.8644 2.46759 9.12361 1.89259 8.31669 2.15517C7.48581 2.42542 7.21461 3.3435 6.97502 4.1533C6.89848 4.51245 6.76209 4.85617 6.57156 5.17009C6.20885 5.25745 5.83406 5.28336 5.46277 5.24675C4.62136 5.22375 3.67356 5.19884 3.16277 5.89842C2.65198 6.598 2.9711 7.48255 3.25094 8.26838C3.40469 8.61406 3.49587 8.98429 3.52023 9.36184C3.2836 9.63312 3.00424 9.86392 2.69319 10.0451C1.99169 10.5243 1.19531 11.0696 1.19531 11.9551C1.19531 12.8406 1.99169 13.384 2.69319 13.865C3.00417 14.046 3.28352 14.2764 3.52023 14.5474C3.49843 14.9248 3.40985 15.2953 3.2586 15.6418C2.98069 16.4276 2.66635 17.3189 3.1714 18.0118C3.67644 18.7046 4.62902 18.6826 5.4714 18.6634C5.84224 18.6253 6.21687 18.6505 6.57923 18.7382C6.77126 19.0523 6.90865 19.3968 6.98556 19.7569C7.22323 20.5667 7.49444 21.4819 8.32723 21.756C8.46075 21.7988 8.60006 21.8208 8.74027 21.8211C9.41418 21.7244 10.0405 21.418 10.5304 20.9452C10.8141 20.6862 11.1428 20.4812 11.5003 20.3405C11.8615 20.4801 12.1938 20.6851 12.4806 20.9452C13.1371 21.4464 13.8808 22.0186 14.6848 21.755C15.5157 21.4848 15.7869 20.5667 16.0265 19.7578C16.1033 19.398 16.2407 19.0539 16.4328 18.7401C16.7941 18.6521 17.1678 18.6262 17.5378 18.6634C18.3792 18.6835 19.327 18.7113 19.8378 18.0118C20.3486 17.3122 20.0294 16.4276 19.7496 15.6408C19.5969 15.2955 19.5058 14.9261 19.4803 14.5493C19.7171 14.2778 19.9968 14.0469 20.3083 13.866C21.0098 13.3868 21.8062 12.8406 21.8062 11.9551C21.8062 11.0696 21.0069 10.5253 20.3045 10.0451Z" fill="#1B5FE1"/>
<path d="M10.5955 15.7657C10.4676 15.7853 10.337 15.7794 10.2114 15.7483C10.0857 15.7171 9.96755 15.6615 9.86366 15.5845L6.8729 13.3841C6.67289 13.2258 6.54235 12.9962 6.50878 12.7436C6.47521 12.491 6.54122 12.2352 6.69292 12.0301C6.84461 11.825 7.07014 11.6866 7.322 11.644C7.57385 11.6015 7.83236 11.6581 8.04307 11.8019L10.346 13.4962L14.3579 9.42977C14.5414 9.24382 14.7913 9.13814 15.0527 9.13597C15.3142 9.1338 15.5657 9.23533 15.7519 9.41821C15.9382 9.60109 16.0439 9.85035 16.0459 10.1111C16.0479 10.3719 15.9459 10.6229 15.7625 10.8089L11.151 15.483C11.0013 15.6346 10.8064 15.7338 10.5955 15.7657Z" fill="white"/>
</svg>
