<svg width="102" height="27" viewBox="0 0 102 27" fill="none" xmlns="http://www.w3.org/2000/svg">
<rect width="102" height="27" rx="2" fill="#1B5FE1"/>
<path d="M17.3592 12.3373C17.1698 12.2271 16.9995 12.0869 16.8552 11.9219C16.8698 11.6923 16.9245 11.4671 17.0168 11.2564C17.1865 10.7774 17.3785 10.2349 17.0705 9.81319C16.7625 9.39144 16.1809 9.40486 15.6705 9.41652C15.4449 9.43973 15.2171 9.42434 14.9967 9.37102C14.8793 9.17999 14.7954 8.97026 14.7488 8.75094C14.6041 8.25802 14.439 7.70094 13.9321 7.53411C13.4433 7.37661 12.9906 7.72311 12.5905 8.02761C12.4178 8.18529 12.2177 8.31004 12.0001 8.39569C11.7803 8.31074 11.578 8.18596 11.4034 8.02761C11.0044 7.72486 10.5535 7.37486 10.0623 7.53469C9.55654 7.69919 9.39146 8.25802 9.24562 8.75094C9.19903 8.96955 9.11601 9.17878 9.00004 9.36986C8.77926 9.42303 8.55112 9.43881 8.32512 9.41652C7.81296 9.40252 7.23604 9.38736 6.92512 9.81319C6.61421 10.239 6.80846 10.7774 6.97879 11.2558C7.07238 11.4662 7.12788 11.6915 7.14271 11.9214C6.99867 12.0865 6.82862 12.227 6.63929 12.3373C6.21229 12.6289 5.72754 12.9609 5.72754 13.4999C5.72754 14.0389 6.21229 14.3696 6.63929 14.6624C6.82858 14.7726 6.99862 14.9129 7.14271 15.0778C7.12944 15.3075 7.07552 15.5331 6.98346 15.7439C6.81429 16.2223 6.62296 16.7648 6.93037 17.1865C7.23779 17.6083 7.81762 17.5949 8.33037 17.5832C8.5561 17.56 8.78414 17.5754 9.00471 17.6287C9.12159 17.8199 9.20522 18.0296 9.25204 18.2488C9.39671 18.7417 9.56179 19.2988 10.0687 19.4656C10.15 19.4917 10.2348 19.505 10.3201 19.5053C10.7303 19.4464 11.1116 19.2599 11.4098 18.9721C11.5825 18.8144 11.7825 18.6897 12.0001 18.604C12.22 18.689 12.4223 18.8138 12.5969 18.9721C12.9965 19.2772 13.4491 19.6254 13.9385 19.465C14.4443 19.3005 14.6094 18.7417 14.7552 18.2494C14.802 18.0303 14.8856 17.8209 15.0025 17.6299C15.2225 17.5763 15.4499 17.5605 15.6751 17.5832C16.1873 17.5954 16.7642 17.6124 17.0751 17.1865C17.386 16.7607 17.1918 16.2223 17.0215 15.7434C16.9285 15.5331 16.873 15.3083 16.8575 15.0789C17.0017 14.9137 17.1719 14.7732 17.3615 14.663C17.7885 14.3714 18.2733 14.0389 18.2733 13.4999C18.2733 12.9609 17.7868 12.6295 17.3592 12.3373Z" fill="white"/>
<path d="M11.4165 15.104C11.359 15.1041 11.3021 15.0928 11.2491 15.0708C11.196 15.0488 11.1478 15.0164 11.1073 14.9757L9.94066 13.809C9.86338 13.7261 9.82131 13.6164 9.82331 13.503C9.82531 13.3897 9.87123 13.2816 9.95138 13.2014C10.0315 13.1212 10.1397 13.0753 10.253 13.0733C10.3664 13.0713 10.4761 13.1134 10.559 13.1907L11.4573 14.089L13.4873 12.5665C13.5802 12.4969 13.6968 12.467 13.8117 12.4834C13.9266 12.4998 14.0302 12.5612 14.0998 12.654C14.1694 12.7468 14.1993 12.8635 14.1829 12.9784C14.1665 13.0932 14.1052 13.1969 14.0123 13.2665L11.679 15.0165C11.6032 15.0733 11.5112 15.104 11.4165 15.104Z" fill="#1B5FE1"/>
<path d="M25.39 17L23.05 9.8H24.135L26.13 15.945L28.15 9.8H29.235L26.895 17H25.39ZM32.0384 17.15C31.5017 17.15 31.03 17.0333 30.6234 16.8C30.22 16.5633 29.905 16.235 29.6784 15.815C29.455 15.3917 29.3434 14.9017 29.3434 14.345C29.3434 13.755 29.4534 13.2433 29.6734 12.81C29.8967 12.3767 30.2067 12.0417 30.6034 11.805C31 11.5683 31.4617 11.45 31.9884 11.45C32.5384 11.45 33.0067 11.5783 33.3934 11.835C33.78 12.0883 34.0684 12.45 34.2584 12.92C34.4517 13.39 34.5284 13.9483 34.4884 14.595H33.4434V14.215C33.4367 13.5883 33.3167 13.125 33.0834 12.825C32.8534 12.525 32.5017 12.375 32.0284 12.375C31.505 12.375 31.1117 12.54 30.8484 12.87C30.585 13.2 30.4534 13.6767 30.4534 14.3C30.4534 14.8933 30.585 15.3533 30.8484 15.68C31.1117 16.0033 31.4917 16.165 31.9884 16.165C32.315 16.165 32.5967 16.0917 32.8334 15.945C33.0734 15.795 33.26 15.5817 33.3934 15.305L34.4184 15.63C34.2084 16.1133 33.89 16.4883 33.4634 16.755C33.0367 17.0183 32.5617 17.15 32.0384 17.15ZM30.1134 14.595V13.78H33.9684V14.595H30.1134ZM35.8602 17V11.6H36.7902V12.91L36.6602 12.74C36.7268 12.5667 36.8135 12.4083 36.9202 12.265C37.0268 12.1183 37.1502 11.9983 37.2902 11.905C37.4268 11.805 37.5785 11.7283 37.7452 11.675C37.9152 11.6183 38.0885 11.585 38.2652 11.575C38.4418 11.5617 38.6118 11.57 38.7752 11.6V12.58C38.5985 12.5333 38.4018 12.52 38.1852 12.54C37.9718 12.56 37.7752 12.6283 37.5952 12.745C37.4252 12.855 37.2902 12.9883 37.1902 13.145C37.0935 13.3017 37.0235 13.4767 36.9802 13.67C36.9368 13.86 36.9152 14.0617 36.9152 14.275V17H35.8602ZM40.0773 10.715V9.7H41.1223V10.715H40.0773ZM40.0773 17V11.6H41.1223V17H40.0773ZM43.3688 17V11.41C43.3688 11.2733 43.3738 11.1283 43.3838 10.975C43.3938 10.8183 43.4222 10.665 43.4688 10.515C43.5188 10.3617 43.6005 10.2217 43.7138 10.095C43.8505 9.945 44.0005 9.83833 44.1638 9.775C44.3272 9.71167 44.4888 9.675 44.6488 9.665C44.8122 9.655 44.9622 9.65 45.0988 9.65H45.7788V10.51H45.1488C44.9022 10.51 44.7172 10.5717 44.5938 10.695C44.4738 10.815 44.4138 10.9867 44.4138 11.21V17H43.3688ZM42.4738 12.44V11.6H45.7788V12.44H42.4738ZM46.8288 10.715V9.7H47.8738V10.715H46.8288ZM46.8288 17V11.6H47.8738V17H46.8288ZM52.0227 17.15C51.4861 17.15 51.0144 17.0333 50.6077 16.8C50.2044 16.5633 49.8894 16.235 49.6627 15.815C49.4394 15.3917 49.3277 14.9017 49.3277 14.345C49.3277 13.755 49.4377 13.2433 49.6577 12.81C49.8811 12.3767 50.1911 12.0417 50.5877 11.805C50.9844 11.5683 51.4461 11.45 51.9727 11.45C52.5227 11.45 52.9911 11.5783 53.3777 11.835C53.7644 12.0883 54.0527 12.45 54.2427 12.92C54.4361 13.39 54.5127 13.9483 54.4727 14.595H53.4277V14.215C53.4211 13.5883 53.3011 13.125 53.0677 12.825C52.8377 12.525 52.4861 12.375 52.0127 12.375C51.4894 12.375 51.0961 12.54 50.8327 12.87C50.5694 13.2 50.4377 13.6767 50.4377 14.3C50.4377 14.8933 50.5694 15.3533 50.8327 15.68C51.0961 16.0033 51.4761 16.165 51.9727 16.165C52.2994 16.165 52.5811 16.0917 52.8177 15.945C53.0577 15.795 53.2444 15.5817 53.3777 15.305L54.4027 15.63C54.1927 16.1133 53.8744 16.4883 53.4477 16.755C53.0211 17.0183 52.5461 17.15 52.0227 17.15ZM50.0977 14.595V13.78H53.9527V14.595H50.0977ZM57.9895 17.15C57.4862 17.15 57.0512 17.025 56.6845 16.775C56.3212 16.525 56.0395 16.185 55.8395 15.755C55.6429 15.3217 55.5445 14.835 55.5445 14.295C55.5445 13.7517 55.6445 13.2667 55.8445 12.84C56.0445 12.41 56.3279 12.0717 56.6945 11.825C57.0645 11.575 57.5029 11.45 58.0095 11.45C58.5195 11.45 58.9479 11.575 59.2945 11.825C59.6445 12.0717 59.9079 12.41 60.0845 12.84C60.2645 13.27 60.3545 13.755 60.3545 14.295C60.3545 14.835 60.2645 15.32 60.0845 15.75C59.9045 16.18 59.6395 16.5217 59.2895 16.775C58.9395 17.025 58.5062 17.15 57.9895 17.15ZM58.1345 16.205C58.4779 16.205 58.7579 16.1233 58.9745 15.96C59.1912 15.7967 59.3495 15.5717 59.4495 15.285C59.5495 14.9983 59.5995 14.6683 59.5995 14.295C59.5995 13.9217 59.5479 13.5917 59.4445 13.305C59.3445 13.0183 59.1879 12.795 58.9745 12.635C58.7645 12.475 58.4962 12.395 58.1695 12.395C57.8229 12.395 57.5379 12.48 57.3145 12.65C57.0912 12.82 56.9245 13.0483 56.8145 13.335C56.7079 13.6217 56.6545 13.9417 56.6545 14.295C56.6545 14.6517 56.7079 14.975 56.8145 15.265C56.9245 15.5517 57.0879 15.78 57.3045 15.95C57.5245 16.12 57.8012 16.205 58.1345 16.205ZM59.5995 17V13.115H59.4795V9.8H60.5295V17H59.5995ZM64.4305 17V9.8H67.3405C67.4105 9.8 67.4971 9.80333 67.6005 9.81C67.7038 9.81333 67.8021 9.82333 67.8955 9.84C68.2955 9.90333 68.6288 10.04 68.8955 10.25C69.1655 10.46 69.3671 10.725 69.5005 11.045C69.6338 11.365 69.7005 11.7183 69.7005 12.105C69.7005 12.495 69.6338 12.85 69.5005 13.17C69.3671 13.49 69.1655 13.755 68.8955 13.965C68.6288 14.175 68.2955 14.3117 67.8955 14.375C67.8021 14.3883 67.7021 14.3983 67.5955 14.405C67.4921 14.4117 67.4071 14.415 67.3405 14.415H65.4755V17H64.4305ZM65.4755 13.425H67.3005C67.3671 13.425 67.4405 13.4217 67.5205 13.415C67.6038 13.4083 67.6821 13.3967 67.7555 13.38C67.9688 13.33 68.1405 13.2383 68.2705 13.105C68.4005 12.9683 68.4938 12.8117 68.5505 12.635C68.6071 12.4583 68.6355 12.2817 68.6355 12.105C68.6355 11.9283 68.6071 11.7533 68.5505 11.58C68.4938 11.4033 68.4005 11.2483 68.2705 11.115C68.1405 10.9783 67.9688 10.885 67.7555 10.835C67.6821 10.815 67.6038 10.8017 67.5205 10.795C67.4405 10.7883 67.3671 10.785 67.3005 10.785H65.4755V13.425ZM70.95 17V11.6H71.88V12.91L71.75 12.74C71.8167 12.5667 71.9033 12.4083 72.01 12.265C72.1167 12.1183 72.24 11.9983 72.38 11.905C72.5167 11.805 72.6683 11.7283 72.835 11.675C73.005 11.6183 73.1783 11.585 73.355 11.575C73.5317 11.5617 73.7017 11.57 73.865 11.6V12.58C73.6883 12.5333 73.4917 12.52 73.275 12.54C73.0617 12.56 72.865 12.6283 72.685 12.745C72.515 12.855 72.38 12.9883 72.28 13.145C72.1833 13.3017 72.1133 13.4767 72.07 13.67C72.0267 13.86 72.005 14.0617 72.005 14.275V17H70.95ZM77.3145 17.15C76.7745 17.15 76.3062 17.0283 75.9095 16.785C75.5129 16.5417 75.2062 16.2067 74.9895 15.78C74.7762 15.35 74.6695 14.855 74.6695 14.295C74.6695 13.7317 74.7795 13.2367 74.9995 12.81C75.2195 12.38 75.5279 12.0467 75.9245 11.81C76.3212 11.57 76.7845 11.45 77.3145 11.45C77.8545 11.45 78.3229 11.5717 78.7195 11.815C79.1162 12.0583 79.4229 12.3933 79.6395 12.82C79.8562 13.2467 79.9645 13.7383 79.9645 14.295C79.9645 14.8583 79.8545 15.355 79.6345 15.785C79.4179 16.2117 79.1112 16.5467 78.7145 16.79C78.3179 17.03 77.8512 17.15 77.3145 17.15ZM77.3145 16.165C77.8312 16.165 78.2162 15.9917 78.4695 15.645C78.7262 15.295 78.8545 14.845 78.8545 14.295C78.8545 13.7317 78.7245 13.2817 78.4645 12.945C78.2079 12.605 77.8245 12.435 77.3145 12.435C76.9645 12.435 76.6762 12.515 76.4495 12.675C76.2229 12.8317 76.0545 13.05 75.9445 13.33C75.8345 13.6067 75.7795 13.9283 75.7795 14.295C75.7795 14.8617 75.9095 15.315 76.1695 15.655C76.4295 15.995 76.8112 16.165 77.3145 16.165ZM81.8083 17V11.41C81.8083 11.2733 81.8133 11.1283 81.8233 10.975C81.8333 10.8183 81.8616 10.665 81.9083 10.515C81.9583 10.3617 82.0399 10.2217 82.1533 10.095C82.2899 9.945 82.4399 9.83833 82.6033 9.775C82.7666 9.71167 82.9283 9.675 83.0883 9.665C83.2516 9.655 83.4016 9.65 83.5383 9.65H84.2183V10.51H83.5883C83.3416 10.51 83.1566 10.5717 83.0333 10.695C82.9133 10.815 82.8533 10.9867 82.8533 11.21V17H81.8083ZM80.9133 12.44V11.6H84.2183V12.44H80.9133ZM85.2683 10.715V9.7H86.3133V10.715H85.2683ZM85.2683 17V11.6H86.3133V17H85.2683ZM88.1672 17V9.65H89.2122V17H88.1672ZM93.3587 17.15C92.822 17.15 92.3503 17.0333 91.9437 16.8C91.5403 16.5633 91.2253 16.235 90.9987 15.815C90.7753 15.3917 90.6637 14.9017 90.6637 14.345C90.6637 13.755 90.7737 13.2433 90.9937 12.81C91.217 12.3767 91.527 12.0417 91.9237 11.805C92.3203 11.5683 92.782 11.45 93.3087 11.45C93.8587 11.45 94.327 11.5783 94.7137 11.835C95.1003 12.0883 95.3887 12.45 95.5787 12.92C95.772 13.39 95.8487 13.9483 95.8087 14.595H94.7637V14.215C94.757 13.5883 94.637 13.125 94.4037 12.825C94.1737 12.525 93.822 12.375 93.3487 12.375C92.8253 12.375 92.432 12.54 92.1687 12.87C91.9053 13.2 91.7737 13.6767 91.7737 14.3C91.7737 14.8933 91.9053 15.3533 92.1687 15.68C92.432 16.0033 92.812 16.165 93.3087 16.165C93.6353 16.165 93.917 16.0917 94.1537 15.945C94.3937 15.795 94.5803 15.5817 94.7137 15.305L95.7387 15.63C95.5287 16.1133 95.2103 16.4883 94.7837 16.755C94.357 17.0183 93.882 17.15 93.3587 17.15ZM91.4337 14.595V13.78H95.2887V14.595H91.4337Z" fill="white"/>
</svg>
