<svg width="30" height="30" viewBox="0 0 30 30" fill="none" xmlns="http://www.w3.org/2000/svg">
<path fill-rule="evenodd" clip-rule="evenodd" d="M15 28.1248C22.2487 28.1248 28.125 22.2485 28.125 14.9998C28.125 7.75102 22.2487 1.87476 15 1.87476C7.75126 1.87476 1.875 7.75102 1.875 14.9998C1.875 17.3537 2.49468 19.5629 3.57982 21.4732L1.875 28.1248L8.73268 26.5346C10.595 27.5486 12.7302 28.1248 15 28.1248Z" fill="white"/>
<path d="M26.25 14.9998C26.25 21.213 21.2132 26.2498 15 26.2498C12.6302 26.2498 10.4315 25.517 8.61811 24.2657L4.77273 25.227L5.7804 21.4483C4.50087 19.6223 3.75 17.3987 3.75 14.9998C3.75 8.78655 8.7868 3.74976 15 3.74976C21.2132 3.74976 26.25 8.78655 26.25 14.9998Z" fill="url(#paint0_linear_543_8427)"/>
<path d="M11.7188 8.90678C11.4067 8.27999 10.928 8.33548 10.4444 8.33548C9.58009 8.33548 8.23242 9.37075 8.23242 11.2975C8.23242 12.8765 8.92823 14.605 11.2729 17.1908C13.5357 19.6862 16.5088 20.977 18.9771 20.9331C21.4453 20.8891 21.9531 18.7651 21.9531 18.0478C21.9531 17.7299 21.7559 17.5713 21.6199 17.5282C20.7788 17.1245 19.2275 16.3723 18.8745 16.231C18.5215 16.0897 18.3372 16.2808 18.2227 16.3848C17.9026 16.6899 17.268 17.5889 17.0508 17.7911C16.8335 17.9933 16.5096 17.891 16.3748 17.8145C15.8788 17.6155 14.534 17.0173 13.462 15.9781C12.1362 14.6929 12.0584 14.2508 11.8087 13.8572C11.6088 13.5423 11.7555 13.3491 11.8286 13.2647C12.1143 12.9351 12.5087 12.4263 12.6856 12.1734C12.8624 11.9205 12.722 11.5366 12.6378 11.2975C12.2754 10.2691 11.9684 9.40822 11.7188 8.90678Z" fill="white"/>
<defs>
<linearGradient id="paint0_linear_543_8427" x1="24.8437" y1="6.56225" x2="3.75" y2="26.2498" gradientUnits="userSpaceOnUse">
<stop stop-color="#5BD066"/>
<stop offset="1" stop-color="#27B43E"/>
</linearGradient>
</defs>
</svg>
